# AST/ASF file generated using VICON BodyLanguage
# -----------------------------------------------
:version 1.10
:name VICON
:units
  mass 1.0
  length 0.45
  angle deg
:documentation
   .ast/.asf automatically generated from VICON data using
   VICON BodyBuilder and BodyLanguage model FoxedUp or BRILLIANT.MOD
:root
   order TX TY TZ RX RY RZ
   axis XYZ
   position 0 0 0  
   orientation 0 0 0 
:bonedata
  begin
     id 1 
     name lhipjoint
     direction 0.521452 -0.77106 0.36545 
     length 2.0933 
     axis 0 0 0  XYZ
  end
  begin
     id 2 
     name lfemur
     direction 0.34202 -0.939693 0  
     length 6.83441  
     axis 0 0 20  XYZ
    dof rx ry rz
    limits (-160.0 20.0)
           (-70.0 70.0)
           (-60.0 70.0)
  end
  begin
     id 3 
     name ltibia
     direction 0.34202 -0.939693 0   
     length 7.28749   
     axis 0 0 20   XYZ
    dof rx
    limits (-10.0 170.0)
  end
  begin
     id 4 
     name lfoot
     direction 0.100608 -0.276418 0.955757   
     length 1.52195   
     axis -90 7.62852e-016 20   XYZ
    dof rx rz
    limits (-45.0 90.0)
           (-70.0 20.0)
  end
  begin
     id 5 
     name ltoes
     direction 1.53558e-011 -4.21907e-011 1   
     length 0.770459   
     axis -90 7.62852e-016 20   XYZ
    dof rx
    limits (-90.0 20.0)
  end
  begin
     id 6 
     name rhipjoint
     direction -0.488071 -0.788702 0.373812   
     length 2.04648  
     axis 0 0 0  XYZ 
  end
  begin
     id 7 
     name rfemur
     direction -0.34202 -0.939693 0   
     length 6.92583   
     axis 0 0 -20   XYZ
    dof rx ry rz
    limits (-160.0 20.0)
           (-70.0 70.0)
           (-70.0 60.0)
  end
  begin
     id 8 
     name rtibia
     direction -0.34202 -0.939693 0   
     length 7.41043   
     axis 0 0 -20   XYZ
    dof rx
    limits (-10.0 170.0)
 end
 begin
     id 9 
     name rfoot
     direction -0.0784433 -0.215521 0.973343   
     length 1.67708  
     axis -90 -7.62852e-016 -20   XYZ
    dof rx rz
    limits (-45.0 90.0)
           (-20.0 70.0)
  end
  begin
     id 10 
     name rtoes
     direction -1.53551e-011 -4.21842e-011 1   
     length 0.849787   
     axis -90 -7.62852e-016 -20   XYZ
    dof rx
    limits (-90.0 20.0)
  end
  begin
     id 11 
     name lowerback
     direction -0.0122332 0.997575 -0.0685192   
     length 1.98724   
     axis 0 0 0   XYZ
    dof rx ry rz
    limits (-20.0 45.0)
           (-30.0 30.0)
           (-30.0 30.0)
  end
  begin
     id 12 
     name upperback
     direction 0.0182347 0.999724 -0.0148421   
     length 1.99029   
     axis 0 0 0   XYZ
    dof rx ry rz
    limits (-20.0 45.0)
           (-30.0 30.0)
           (-30.0 30.0)
  end
  begin
     id 13 
     name thorax
     direction 0.0242908 0.99956 0.0170184   
     length 1.99573   
     axis 0 0 0   XYZ
    dof rx ry rz
    limits (-20.0 45.0)
           (-30.0 30.0)
           (-30.0 30.0)
  end
  begin
     id 14 
     name lowerneck
     direction 0.0654488 0.985533 0.156338   
     length 1.4285   
     axis 0 0 0   XYZ
    dof rx ry rz
    limits (-20.0 45.0)
           (-30.0 30.0)
           (-30.0 30.0)
  end
  begin
     id 15 
     name upperneck
     direction -0.02953 0.998556 -0.0448842   
     length 1.44709   
     axis 0 0 0   XYZ
    dof rx ry rz
    limits (-20.0 45.0)
           (-30.0 30.0)
           (-30.0 30.0)
  end
  begin
     id 16
     name head
     direction -0.0155588 0.999386 -0.0314063  
     length 1.44689  
     axis 0 0 0   XYZ
    dof rx ry rz
    limits (-20.0 45.0)
           (-30.0 30.0)
           (-30.0 30.0)
  end
  begin
     id 17 
     name lclavicle
     direction 0.968229 0.236071 -0.0824755  
     length 3.60593  
     axis 0 0 0   XYZ
    dof ry rz
    limits (-20.0 10.0)
           (0.0 20.0)
  end
  begin
     id 18 
     name lhumerus
     direction 1 -4.48968e-011 7.8138e-029   
     length 5.06035   
     axis 180 -30 -90   XYZ
    dof rx ry rz
    limits (-60.0 90.0)
           (-90.0 90.0)
           (-90.0 90.0)
  end
  begin
     id 19
     name lradius
     direction 1 -4.48967e-011 9.02887e-028   
     length 3.1478   
     axis 180 -30 -90   XYZ
    dof rx
    limits (-10.0 170.0)
  end
  begin
     id 20
     name lwrist
     direction 1 -4.48961e-011 7.20928e-028   
     length 1.5739   
     axis -5.52449e-016 90 90   XYZ
    dof ry
    limits (-180.0 0.0)
 end
  begin
     id 21 
     name lhand
     direction 1 -4.48972e-011 1.44186e-027   
     length 0.606747   
     axis -9.20027e-016 90 90   XYZ
    dof rx rz
    limits (-90.0 90.0)
           (-45.0 45.0)
  end
  begin
     id 22 
     name lfingers
     direction 1 -4.48943e-011 2.88371e-027   
     length 0.489175   
     axis -1.84005e-015 90 90   XYZ
    dof rx
    limits (0.0 90.0)
  end
  begin
     id 23
     name lthumb
     direction 0.707107 -6.34917e-011 0.707107   
     length 0.70236   
     axis -90 45 2.85299e-015   XYZ
    dof rx rz
    limits (-45.0 45.0)
           (-45.0 45.0)
  end
  begin
     id 24 
     name rclavicle
     direction -0.978165 0.207816 0.0022268   
     length 3.35425  
     axis 0 0 0   XYZ 
    dof ry rz
    limits (-10.0 20.0)
           (-20.0 0.0)
  end
  begin
     id 25 
     name rhumerus
     direction -1 -4.48964e-011 -4.02159e-027  
     length 5.12273   
     axis 180 30 90   XYZ
    dof rx ry rz
    limits (-90.0 60.0)
           (-90.0 90.0)
           (-90.0 90.0)
  end
  begin
     id 26 
     name rradius
     direction -1 -4.48966e-011 1.62746e-027   
     length 3.422   
     axis 180 30 90   XYZ
    dof rx
    limits (-10.0 170.0)
  end
  begin
     id 27 
     name rwrist
     direction -1 -4.4896e-011 7.20928e-028   
     length 1.711   
     axis -5.52449e-016 -90 -90   XYZ
    dof ry
    limits (-180.0 0.0)
  end
  begin
     id 28
     name rhand
     direction -1 -4.48979e-011 1.44186e-027   
     length 0.704599   
     axis -9.20027e-016 -90 -90   XYZ
    dof rx rz
    limits (-90.0 90.0)
           (-45.0 45.0)
  end
  begin
     id 29
     name rfingers
     direction -1 -4.48962e-011 2.88371e-027   
     length 0.568066   
     axis -1.84005e-015 -90 -90   XYZ
    dof rx
    limits (0.0 90.0)
  end
  begin
     id 30
     name rthumb
     direction -0.707107 -6.34949e-011 0.707107   
     length 0.815633   
     axis -90 -45 -2.85299e-015   XYZ
    dof rx rz
    limits (-45.0 45.0)
           (-45.0 45.0)
  end
:hierarchy
  begin
    root lhipjoint rhipjoint lowerback
    lhipjoint lfemur
    lfemur ltibia
    ltibia lfoot
    lfoot ltoes
    rhipjoint rfemur
    rfemur rtibia
    rtibia rfoot
    rfoot rtoes
    lowerback upperback
    upperback thorax
    thorax lowerneck lclavicle rclavicle
    lowerneck upperneck
    upperneck head
    lclavicle lhumerus
    lhumerus lradius
    lradius lwrist
    lwrist lhand lthumb
    lhand lfingers
    rclavicle rhumerus
    rhumerus rradius
    rradius rwrist
    rwrist rhand rthumb
    rhand rfingers
  end

#!OML:ASF E:\id_vita\Project 1\Capture day 1\Session 1\Male1.ASF
:FULLY-SPECIFIED
:DEGREES
961
root 0.605302 27.5256 0.0350116 -4.55899 86.3549 -11.6423
lowerback 0.0639316 2.78176 0.592931
upperback 1.7922 3.714 0.0601308
thorax 1.83402 1.86864 -0.211394
lowerneck -2.88828 5.37848 9.54714
upperneck 6.86516 7.17291 -6.34802
head 3.08538 3.60646 -3.17792
rclavicle -8.32411e-015 1.22253e-014
rhumerus -30.7802 3.72886 -84.1446
rradius 24.1908
rwrist 14.426
rhand -35.3102 64.176
rfingers 7.12502
rthumb -8.44416 34.3648
lclavicle -8.32411e-015 1.22253e-014
lhumerus -23.0719 10.9033 77.1865
lradius 14.362
lwrist -15.4128
lhand -25.8219 33.9018
lfingers 7.12502
lthumb 0.717764 63.8804
rfemur -4.52506 -1.1137 21.9776
rtibia 17.3005
rfoot -17.2979 -11.0593
rtoes 0.494852
lfemur -26.538 -0.971218 -14.3042
ltibia 27.5681
lfoot -8.43226 -1.01253
ltoes -6.62034
962
root 0.540312 27.527 0.0572923 -2.57989 86.7978 -9.54271
lowerback 0.455369 2.58965 0.320822
upperback 1.71971 3.46141 0.0877154
thorax 1.51982 1.7381 -0.0585169
lowerneck -3.24551 5.21291 9.17414
upperneck 7.95585 6.95287 -5.87531
head 3.42497 3.51059 -2.96609
rclavicle -3.55825e-014 4.96962e-016
rhumerus -30.9227 4.06097 -84.0757
rradius 24.0755
rwrist 14.732
rhand -33.7064 64.2719
rfingers 7.12502
rthumb -6.89619 34.4042
lclavicle -3.55825e-014 4.96962e-016
lhumerus -23.3647 9.98758 77.2938
lradius 14.8398
lwrist -14.126
lhand -25.6024 34.4577
lfingers 7.12502
lthumb 0.929767 64.4354
rfemur -4.74611 -1.34252 21.9016
rtibia 17.5583
rfoot -17.2366 -11.1981
rtoes 0.336127
lfemur -26.6743 -0.977471 -14.4769
ltibia 27.3631
lfoot -7.87658 -1.23516
ltoes -6.75277
963
root 0.478116 27.5307 0.0765035 -1.21438 86.9504 -8.08021
lowerback 0.735275 2.48832 0.0808231
upperback 1.71267 3.32712 0.190439
thorax 1.33536 1.66749 0.164498
lowerneck -3.58565 4.98259 8.71489
upperneck 8.84431 6.64786 -5.46394
head 3.69684 3.36748 -2.7677
rclavicle -3.55328e-015 2.18663e-015
rhumerus -30.7838 3.9666 -83.786
rradius 23.9123
rwrist 15.034
rhand -34.4679 64.3997
rfingers 7.12502
rthumb -7.63119 34.5574
lclavicle -3.55328e-015 2.18663e-015
lhumerus -23.5594 10.0409 77.3391
lradius 15.2971
lwrist -13.6284
lhand -25.3989 34.9708
lfingers 7.12502
lthumb 1.12633 64.9476
rfemur -5.02509 -1.80308 21.855
rtibia 17.8083
rfoot -17.315 -10.8528
rtoes 0.449864
lfemur -26.7632 -0.925483 -14.5212
ltibia 27.1793
lfoot -7.39115 -1.30923
ltoes -6.18646
964
root 0.416039 27.5367 0.0906136 -3.0449 86.9928 -9.90158
lowerback 0.25534 2.47572 0.0714662
upperback 2.192 3.31177 0.39087
thorax 2.08424 1.6589 0.412188
lowerneck -4.27107 4.69196 8.07867
upperneck 9.44796 6.22758 -5.03759
head 3.92947 3.15227 -2.53847
rclavicle -1.78409e-014 -6.75868e-015
rhumerus -29.8156 3.85887 -83.3109
rradius 23.8644
rwrist 14.6837
rhand -33.3614 63.6889
rfingers 7.12502
rthumb -6.56311 33.8106
lclavicle -1.78409e-014 -6.75868e-015
lhumerus -22.7767 10.846 77.5616
lradius 15.3478
lwrist -13.8151
lhand -25.3773 34.9008
lfingers 7.12502
lthumb 1.14717 64.8774
rfemur -5.37753 -2.48632 21.973
rtibia 17.9881
rfoot -17.4455 -10.1631
rtoes 0.678528
lfemur -26.9314 -0.7586 -14.3815
ltibia 27.0316
lfoot -6.91777 -1.36903
ltoes -4.96787
965
root 0.356605 27.5428 0.103249 -6.54666 87.2156 -13.4129
lowerback 0.601865 2.39207 0.312633
upperback 2.04379 3.19852 0.453607
thorax 1.74775 1.60622 0.319652
lowerneck -4.65497 4.27549 7.56862
upperneck 10.5222 5.67216 -4.51278
head 4.25322 2.89368 -2.31246
rclavicle 1.99779e-014 -1.98785e-016
rhumerus -29.9911 3.84458 -83.1668
rradius 24.1111
rwrist 14.336
rhand -32.5269 62.9914
rfingers 7.12502
rthumb -5.75747 33.0896
lclavicle 1.99779e-014 -1.98785e-016
lhumerus -22.9333 10.975 77.4883
lradius 15.484
lwrist -13.6202
lhand -25.3967 34.8145
lfingers 7.12502
lthumb 1.1284 64.7912
rfemur -5.72845 -2.96844 22.1877
rtibia 18.1914
rfoot -17.3965 -9.87481
rtoes 0.68242
lfemur -27.134 -0.688168 -14.2146
ltibia 26.8915
lfoot -6.40221 -1.43448
ltoes -3.78135
966
root 0.29081 27.5507 0.119193 -9.5469 86.917 -16.4587
lowerback 0.516431 2.52417 0.51168
upperback 2.09223 3.37309 0.483784
thorax 1.85478 1.69666 0.247292
lowerneck -4.72399 3.85217 7.05024
upperneck 11.3573 5.09217 -3.73232
head 4.45115 2.64084 -2.01712
rclavicle -2.11209e-014 -1.0138e-014
rhumerus -29.8908 3.47425 -82.9712
rradius 24.2051
rwrist 14.3247
rhand -33.4341 62.4009
rfingers 7.12502
rthumb -6.63324 32.5248
lclavicle -2.11209e-014 -1.0138e-014
lhumerus -22.7722 10.958 77.461
lradius 15.6205
lwrist -13.3817
lhand -25.5487 34.6286
lfingers 7.12502
lthumb 0.981661 64.6061
rfemur -6.23573 -3.00001 22.4712
rtibia 18.4903
rfoot -17.3162 -9.52157
rtoes 1.02368
lfemur -27.2579 -0.678556 -13.8461
ltibia 26.705
lfoot -6.05292 -0.901992
ltoes -1.66584
967
root 0.227904 27.5578 0.135568 -9.19094 86.943 -16.1693
lowerback 0.464896 2.52116 0.448473
upperback 2.10707 3.36896 0.489689
thorax 1.89491 1.69347 0.291416
lowerneck -4.87911 3.91891 6.94094
upperneck 11.9675 5.2227 -3.84712
head 4.67081 2.70153 -2.02013
rclavicle -2.42517e-014 1.39149e-014
rhumerus -29.7576 3.36406 -82.8474
rradius 24.2652
rwrist 14.1296
rhand -34.3167 63.2629
rfingers 7.12502
rthumb -7.48522 33.4153
lclavicle -2.42517e-014 1.39149e-014
lhumerus -22.7136 10.6402 77.5141
lradius 15.8345
lwrist -12.6534
lhand -25.8432 34.672
lfingers 7.12502
lthumb 0.697221 64.6506
rfemur -6.74778 -2.96809 22.5493
rtibia 18.8385
rfoot -17.168 -9.51734
rtoes 1.36886
lfemur -27.403 -0.673859 -13.7833
ltibia 26.4938
lfoot -5.81745 -0.641731
ltoes 0.845828
968
root 0.169486 27.5636 0.14845 -1.35098 87.0932 -8.43359
lowerback 0.388444 2.46998 -0.057749
upperback 2.08263 3.30307 0.483385
thorax 1.88446 1.65161 0.568495
lowerneck -5.10414 3.50608 6.27974
upperneck 12.9277 4.68616 -3.28585
head 4.94498 2.45419 -1.7638
rclavicle 4.07509e-015 -1.70955e-014
rhumerus -29.6706 3.63494 -82.7442
rradius 24.666
rwrist 12.9585
rhand -32.6193 62.214
rfingers 7.12502
rthumb -5.84665 32.3147
lclavicle 4.07509e-015 -1.70955e-014
lhumerus -22.7869 10.2615 77.7461
lradius 16.1385
lwrist -11.6593
lhand -26.1069 34.8929
lfingers 7.12502
lthumb 0.44253 64.8722
rfemur -7.2912 -2.88839 22.1943
rtibia 19.1832
rfoot -16.8748 -9.7152
rtoes 0.991769
lfemur -27.5632 -0.721925 -14.2052
ltibia 26.3172
lfoot -5.87769 -0.405608
ltoes 2.02618
969
root 0.106731 27.5678 0.161428 0.105826 87.0304 -7.05846
lowerback 0.747616 2.54803 0.0920471
upperback 1.89499 3.40788 0.286424
thorax 1.51019 1.70812 0.261564
lowerneck -5.55128 3.09028 6.07035
upperneck 14.0538 4.09343 -2.76981
head 5.3255 2.2011 -1.59506
rclavicle 5.48149e-014 -3.57812e-015
rhumerus -29.7267 3.41672 -82.9216
rradius 24.898
rwrist 12.4585
rhand -31.5917 61.5593
rfingers 7.12502
rthumb -4.85454 31.635
lclavicle 5.48149e-014 -3.57812e-015
lhumerus -22.7718 10.1619 77.5649
lradius 16.2298
lwrist -11.3905
lhand -26.2572 34.8692
lfingers 7.12502
lthumb 0.297351 64.8487
rfemur -7.82115 -2.69699 22.2246
rtibia 19.5425
rfoot -16.5629 -9.88273
rtoes 0.485726
lfemur -27.6705 -0.716169 -14.2158
ltibia 26.1646
lfoot -6.18914 -0.0646156
ltoes 2.78805
970
root 0.0401921 27.5694 0.176794 -9.08251 87.008 -16.1978
lowerback 0.529854 2.52728 0.454627
upperback 2.23824 3.37847 0.533999
thorax 1.99094 1.69896 0.33424
lowerneck -6.16678 2.84077 5.51377
upperneck 14.9373 3.7465 -2.33417
head 5.67098 2.03996 -1.37887
rclavicle 7.00716e-015 9.14409e-015
rhumerus -28.9639 3.68114 -82.7202
rradius 24.9798
rwrist 12.3384
rhand -31.1689 60.749
rfingers 7.12502
rthumb -4.44621 30.8157
lclavicle 7.00716e-015 9.14409e-015
lhumerus -22.0862 11.0695 77.7239
lradius 16.1839
lwrist -11.5783
lhand -26.1786 34.7766
lfingers 7.12502
lthumb 0.373282 64.756
rfemur -8.18346 -2.49116 22.8583
rtibia 19.9163
rfoot -16.395 -10.0756
rtoes 0.612696
lfemur -27.6485 -0.512448 -13.6802
ltibia 26.0425
lfoot -6.71306 -0.157264
ltoes 3.57097
971
root -0.0203533 27.5686 0.191451 -14.8206 87.1092 -21.8414
lowerback 0.941411 2.4208 0.555368
upperback 2.08144 3.23795 0.7272
thorax 1.59369 1.62888 0.449288
lowerneck -6.44816 2.56986 5.01422
upperneck 16.1875 3.40566 -1.87585
head 6.08132 1.90161 -1.16782
rclavicle -1.23743e-014 -1.0138e-014
rhumerus -29.1686 4.07032 -82.6065
rradius 25.1725
rwrist 12.3053
rhand -32.2992 60.1808
rfingers 7.12502
rthumb -5.5376 30.2732
lclavicle -1.23743e-014 -1.0138e-014
lhumerus -22.4373 10.9363 77.868
lradius 16.5454
lwrist -10.7579
lhand -26.0814 34.3713
lfingers 7.12502
lthumb 0.467127 64.3505
rfemur -8.45075 -2.38464 23.2392
rtibia 20.233
rfoot -16.2833 -10.2684
rtoes 1.01644
lfemur -27.6055 -0.457575 -13.3776
ltibia 26.0311
lfoot -7.58697 -0.470561
ltoes 4.67035
972
root -0.0779063 27.5676 0.20306 -13.5967 87.2702 -20.539
lowerback 0.999458 2.32772 0.460247
upperback 2.12971 3.11523 0.678439
thorax 1.60864 1.56678 0.450541
lowerneck -6.86582 2.33908 4.70081
upperneck 17.2941 3.05303 -1.2792
head 6.47875 1.77713 -0.943032
rclavicle -1.28713e-014 6.16232e-015
rhumerus -29.1008 4.45215 -82.7052
rradius 25.3588
rwrist 12.0977
rhand -32.5971 60.8053
rfingers 7.12502
rthumb -5.82522 30.9054
lclavicle -1.28713e-014 6.16232e-015
lhumerus -22.4488 10.6654 77.9664
lradius 16.9027
lwrist -9.89415
lhand -26.1109 33.9781
lfingers 7.12502
lthumb 0.438638 63.9574
rfemur -8.73468 -2.4736 23.1954
rtibia 20.5119
rfoot -16.1081 -10.3392
rtoes 0.592576
lfemur -27.5739 -0.398852 -13.5193
ltibia 26.1376
lfoot -8.61417 -0.563916
ltoes 5.37578
973
root -0.138289 27.5681 0.211973 -15.1626 87.3226 -22.0429
lowerback 0.727483 2.26903 0.379242
upperback 2.39525 3.03533 0.808936
thorax 2.02302 1.52554 0.648525
lowerneck -7.82507 2.08048 4.13082
upperneck 19.2762 2.68488 -0.632811
head 7.25813 1.65216 -0.649213
rclavicle 4.1546e-014 8.94531e-015
rhumerus -28.6579 5.05578 -82.5949
rradius 25.5622
rwrist 11.8041
rhand -33.8985 61.4593
rfingers 7.12502
rthumb -7.08157 31.5978
lclavicle 4.1546e-014 8.94531e-015
lhumerus -22.1368 10.8437 78.2718
lradius 17.1426
lwrist -9.44157
lhand -26.187 33.9751
lfingers 7.12502
lthumb 0.365155 63.9546
rfemur -9.06975 -2.63869 23.3107
rtibia 20.8257
rfoot -16.0441 -10.2738
rtoes 0.120799
lfemur -27.52 0.11315 -13.6422
ltibia 26.3212
lfoot -9.6461 -0.690482
ltoes 4.14267
974
root -0.195464 27.5659 0.219003 -19.7742 87.2094 -26.5174
lowerback 0.817499 2.2078 0.547795
upperback 2.45238 2.95338 0.958685
thorax 2.03253 1.48735 0.704643
lowerneck -8.29186 1.92603 3.68911
upperneck 20.64 2.51372 -0.325299
head 7.77488 1.59531 -0.476558
rclavicle 2.71341e-014 -1.07344e-014
rhumerus -28.5222 5.57547 -82.5591
rradius 25.6954
rwrist 11.7992
rhand -32.8435 60.7413
rfingers 7.12502
rthumb -6.06316 30.8481
lclavicle 2.71341e-014 -1.07344e-014
lhumerus -22.1368 10.9205 78.4459
lradius 17.2885
lwrist -8.95451
lhand -26.3452 34.1564
lfingers 7.12502
lthumb 0.212329 64.136
rfemur -9.31687 -2.72591 23.6109
rtibia 21.1662
rfoot -16.0815 -10.1683
rtoes -0.0492417
lfemur -27.3326 0.752885 -13.5731
ltibia 26.611
lfoot -10.8227 -1.11769
ltoes 2.33437
975
root -0.249309 27.5614 0.226385 -22.0557 87.153 -28.6031
lowerback 0.524256 2.07074 0.50946
upperback 2.79808 2.76729 1.15336
thorax 2.54313 1.39338 0.945241
lowerneck -8.72983 1.84275 3.15455
upperneck 21.2791 2.458 -0.181071
head 8.05559 1.55065 -0.335781
rclavicle 1.54555e-014 2.18663e-014
rhumerus -27.845 6.30448 -82.4691
rradius 25.6262
rwrist 11.8655
rhand -32.1278 60.8902
rfingers 7.12502
rthumb -5.37214 30.9782
lclavicle 1.54555e-014 2.18663e-014
lhumerus -21.7403 11.1165 78.7698
lradius 17.3811
lwrist -8.32695
lhand -26.536 34.3254
lfingers 7.12502
lthumb 0.0280562 64.3052
rfemur -9.48295 -2.79635 23.7734
rtibia 21.4854
rfoot -16.0307 -10.1345
rtoes -0.101846
lfemur -27.0774 1.10464 -13.5604
ltibia 27.0483
lfoot -12.0359 -1.69196
ltoes 1.97203
